<svg id="Blog_copy" data-name="Blog copy" xmlns="http://www.w3.org/2000/svg" width="31.44" height="31" viewBox="0 0 31.44 31">
  <defs>
    <style>
      .cls-1 {
        fill: none;
        stroke: #73ae3a;
        stroke-width: 1px;
      }

      .cls-2 {
        fill: #73ae3a;
        fill-rule: evenodd;
      }
    </style>
  </defs>
  <ellipse class="cls-1" cx="15.72" cy="15.5" rx="15.22" ry="15"/>
  <path class="cls-2" d="M1242.96,354.645l-0.14-.278-0.22-.176c-0.3-.23-1.79.015-2.19-0.348a2.275,2.275,0,0,1-.42-1.369,4.005,4.005,0,0,0-.45-1.717,5.6,5.6,0,0,0-3.92-2.759h-3.55a5.078,5.078,0,0,0-5.07,5.057v5.9a5.074,5.074,0,0,0,5.07,5.048h5.83a5.08,5.08,0,0,0,5.07-5.048l0.03-4.086Zm-10.83-2.514h2.82a0.966,0.966,0,1,1,0,1.931h-2.82A0.966,0.966,0,1,1,1232.13,352.131Zm5.72,7.712h-5.72a0.963,0.963,0,1,1,0-1.925h5.72A0.963,0.963,0,1,1,1237.85,359.843Z" transform="translate(-1219.12 -340.5)"/>
</svg>
