<svg id="Instagram_copy" data-name="Instagram copy" xmlns="http://www.w3.org/2000/svg" width="31.44" height="31" viewBox="0 0 31.44 31">
  <defs>
    <style>
      .cls-1 {
        fill: none;
        stroke: #868a8c;
        stroke-width: 1px;
      }

      .cls-2 {
        fill: #868a8c;
        fill-rule: evenodd;
      }
    </style>
  </defs>
  <ellipse class="cls-1" cx="15.72" cy="15.5" rx="15.22" ry="15"/>
  <path class="cls-2" d="M1188.23,348h-6.46a4.774,4.774,0,0,0-4.77,4.766v6.468a4.774,4.774,0,0,0,4.77,4.766h6.46a4.774,4.774,0,0,0,4.77-4.766v-6.468A4.774,4.774,0,0,0,1188.23,348Zm3.16,11.234a3.155,3.155,0,0,1-3.16,3.156h-6.46a3.155,3.155,0,0,1-3.16-3.156v-6.468a3.155,3.155,0,0,1,3.16-3.156h6.46a3.155,3.155,0,0,1,3.16,3.156v6.468h0Zm-6.39-7.372a4.138,4.138,0,1,0,4.14,4.138A4.145,4.145,0,0,0,1185,351.862Zm0,6.667a2.529,2.529,0,1,1,2.53-2.529A2.528,2.528,0,0,1,1185,358.529Zm4.15-7.628a0.992,0.992,0,1,1-1,.992A1,1,0,0,1,1189.15,350.9Z" transform="translate(-1169.12 -340.5)"/>
</svg>
