<?xml version="1.0" encoding="utf-8"?>
<!-- Generator: Adobe Illustrator 22.0.1, SVG Export Plug-In . SVG Version: 6.00 Build 0)  -->
<svg version="1.1" id="Instagram_copy_2" xmlns="http://www.w3.org/2000/svg" xmlns:xlink="http://www.w3.org/1999/xlink" x="0px"
	 y="0px" viewBox="0 0 31.4 31" style="enable-background:new 0 0 31.4 31;" xml:space="preserve">
<style type="text/css">
	.st0{fill:url(#SVGID_1_);}
	.st1{fill:url(#SVGID_2_);}
</style>
<linearGradient id="SVGID_1_" gradientUnits="userSpaceOnUse" x1="15.7202" y1="29.75" x2="15.7202" y2="0.9957">
	<stop  offset="0" style="stop-color:#E09B3D"/>
	<stop  offset="0.3" style="stop-color:#C74C4D"/>
	<stop  offset="0.6" style="stop-color:#C21975"/>
	<stop  offset="1" style="stop-color:#7024C4"/>
</linearGradient>
<path class="st0" d="M15.7,31C7.1,31,0,24,0,15.5S7.1,0,15.7,0c8.7,0,15.7,7,15.7,15.5S24.4,31,15.7,31z M15.7,1C7.6,1,1,7.5,1,15.5
	S7.6,30,15.7,30s14.7-6.5,14.7-14.5S23.8,1,15.7,1z"/>
<linearGradient id="SVGID_2_" gradientUnits="userSpaceOnUse" x1="15.88" y1="22.75" x2="15.88" y2="8.2834">
	<stop  offset="0" style="stop-color:#E09B3D"/>
	<stop  offset="0.3" style="stop-color:#C74C4D"/>
	<stop  offset="0.6" style="stop-color:#C21975"/>
	<stop  offset="1" style="stop-color:#7024C4"/>
</linearGradient>
<path class="st1" d="M19.1,7.5h-6.5c-2.6,0-4.8,2.1-4.8,4.8v6.5c0,2.6,2.1,4.8,4.8,4.8h6.5c2.6,0,4.8-2.1,4.8-4.8v-6.5
	C23.9,9.6,21.7,7.5,19.1,7.5z M22.3,18.7c0,1.7-1.4,3.2-3.2,3.2c0,0,0,0,0,0h-6.5c-1.7,0-3.2-1.4-3.2-3.1c0,0,0,0,0,0v-6.5
	c0-1.7,1.4-3.2,3.2-3.2c0,0,0,0,0,0h6.5c1.7,0,3.2,1.4,3.2,3.1c0,0,0,0,0,0V18.7L22.3,18.7z M15.9,11.4c-2.3,0-4.1,1.9-4.1,4.1
	s1.9,4.1,4.1,4.1c2.3,0,4.1-1.9,4.1-4.1C20,13.2,18.2,11.4,15.9,11.4z M15.9,18c-1.4,0-2.5-1.1-2.5-2.5s1.1-2.5,2.5-2.5
	c1.4,0,2.5,1.1,2.5,2.5C18.4,16.9,17.3,18,15.9,18C15.9,18,15.9,18,15.9,18z M20,10.4c0.5,0,1,0.5,1,1c0,0.5-0.5,1-1,1
	c-0.5,0-1-0.4-1-1C19,10.8,19.5,10.4,20,10.4L20,10.4z"/>
</svg>
