<svg xmlns="http://www.w3.org/2000/svg" width="163.031" height="199" viewBox="0 0 163.031 199">
  <defs>
    <style>
      .cls-1 {
        fill: #73ae3a;
        fill-rule: evenodd;
      }
    </style>
  </defs>
  <path id="Shape_16_copy_2" data-name="Shape 16 copy 2" class="cls-1" d="M420.845,217a66.7,66.7,0,0,1,7.534-4.1c2.583-1.232,5.223-2.339,7.894-3.373a136.362,136.362,0,0,1,16.427-5.088,150.483,150.483,0,0,1,34.219-4.2,141.279,141.279,0,0,1,34.307,3.916,125.006,125.006,0,0,1,16.421,5.216c2.66,1.071,5.282,2.219,7.848,3.487A82.922,82.922,0,0,1,553,217l-8.348-1.671c-2.766-.535-5.519-1.058-8.272-1.53-5.5-.95-10.986-1.766-16.472-2.4a269.938,269.938,0,0,0-32.923-1.795,303.552,303.552,0,0,0-32.975,2.055c-5.5.62-11.007,1.394-16.527,2.281S426.435,215.835,420.845,217ZM552.128,78.654c-1.456-.554-3.5.1-5.051,0.682v0.906c-0.98-.658-1.291.849-2.272,0.909-3.567.191-6.847,0.645-10.6,0.673a20.408,20.408,0,0,1-2.018-5.89c-1.259-1.441-3.565-1.8-4.8-3.174-0.563-.626-0.477-1.667-1.01-2.262-1.575-1.765-4.89-2.592-4.542-5.443-1.732-1.468-2.316-3.961-3.793-5.66,0.5-1.817-1.06-2.855,0-4.989a8.757,8.757,0,0,1-2.772-3.173c-2.131.48-1.689-1.356-3.03-1.587-0.645-1.157-.241-3.259-1.513-3.854a2.257,2.257,0,0,0,.252-1.58c-1.576-1.746-2.1-3.524-3.283-5.894-2.394-.64-4.241-2.913-3.285-5.211-2.838-2.482-7.5.283-11.357-.451-0.979-.19-1.853-1.216-2.778-1.364a8.975,8.975,0,0,0-4.04.453c0.081-2.114-2.314-2.044-4.038-2.493-1.031-.27-1.646-0.87-2.775-0.9-2.108-.075-4.147.387-4.546,1.811-0.51,1.821,2,3.722.256,4.985-1.234-1.263-4.328-1.927-8.081-1.586-0.926-1.106-.132-2.47-0.249-4.08a60.215,60.215,0,0,0-8.84-.451c-0.578-1.752-2.681-2.127-4.542-2.723,0.673-.3.333-1.515,0.755-2.039a4.709,4.709,0,0,0,2.524-.9c0.317-2.015-.952-2.667-2.02-2.266,0.284-.82,1.8-1.7.761-2.948-4.633-.859-7.574,2.057-11.864.9-0.482,1.21-6.226-.433-9.6,0-1.194.156-2.086,0.711-3.027,0.23a7.019,7.019,0,0,0-1.763,2.261A72.479,72.479,0,0,1,417.829,22c-1.2,1.193-.883,3.74-3.537,3.631a2.144,2.144,0,0,1-3.028,2.265,2.165,2.165,0,0,1-1.77,1.586c-0.628,3.943-1.129,10.138-7.568,9.971v1.812c-2.027.183-1.359,1.565-3.032,1.81,0.263,1.9-1.107,2.338-2.777,2.5-0.142,1.355-1.942,1.3-2.274,2.947-0.407,2.016.771,5.009,0,7.7-2.9,2.2-.944,10.4-1.512,15.414a8.462,8.462,0,0,0-2.274,1.811c-0.6,3.861,2.644,4.272,3.284,7.024,0.606,0.09.546-.412,1.259-0.224,0.043,1.845,1.882,2.092,2.778,3.167,0.049,2.435,2.92,3.35,2.021,5.9,1.043,3.063,5.607,2.971,8.581,4.3-0.107,1.607,1.626,1.567,2.275,2.5a2.239,2.239,0,0,1,.251,1.586,22.876,22.876,0,0,0,3.825.37,13.97,13.97,0,0,0,3.629-1.917c0.839,0.007,1.136-.533,2.062-0.432,2.727-1.919,7.937-1.6,11.909-1.508a5.649,5.649,0,0,1,2.036-.217,1.2,1.2,0,0,1,.013-0.377,2.785,2.785,0,0,1,2.631.255c0.155-.022.312-0.046,0.466-0.072,0.52-1.113,3.844-.8,5.123-0.344a1.552,1.552,0,0,1,1.656.534c1.065,0.2,2.924.167,3.134,0.866,2.508,0.14,4.464,1.735,7.371,1.832,0.74-.7,1.579-0.239,1.948-0.86,0.441-.036-0.022.147,0.1,0.432,0.6-.862,1.386-0.646,2.709-0.969,1.1-.272,1.768-1.337,2.932-1.834,0.329-.151.738-0.1,1.077-0.218,1.775-.646,3.346-2.216,5.631-1.3,2.777,1.114,4.42,4.575,5.536,7.769a9.356,9.356,0,0,0,2.587,2.479c1.258,1.5.652,4.21,1.2,6.684,0.195,0.886.233,2.209,0.429,3.56,0.356,2.382,1.1,4.756-.113,6.9,0.129,2.525,1.535,3.668,2.932,5.281,1.521,1.763,3.206,2.713,4.877,4.2,0.783,0.265,1.877.79,1.946,1.405-0.076.538-.924,0.337-1.185,0.329-2.041-.121-6.62-1.709-7.478-3.889,0.956,2.428,3.616,4.1,5.635,5.825,0.854,0.519,2.022.717,2.167,1.942a6.4,6.4,0,0,1-2.167,0c-0.954-.236-1.546-1.038-2.39-1.51-1.065-.6-2.4-0.677-3.029-1.618a46.933,46.933,0,0,0,3.354,8.735,23.558,23.558,0,0,1,1.739,4.856c0.231,0.978.634,1.894,0.22,2.8,0.828,2.242.106,4.142,0.327,6.472a6.585,6.585,0,0,1-2.286,2.158c-1.672,1.137-4.441,2.515-7.033,2.263-0.129-1.094.74-1.2,1.3-1.614-0.27-.743-0.856-1.163-0.877-2.161,1.249-1.6,3.128,1.189,4.555-.75a15.758,15.758,0,0,0,1.083-2.809,8.243,8.243,0,0,0-.759-3.337c-0.664-1.81-1.824-3.574-2.711-5.4-0.335-.679-0.5-1.315-0.86-1.942-0.815-1.427-1.9-2.99-2.82-4.638a35.176,35.176,0,0,1-2.6-4.633c-0.922-2.415-.915-5.032-1.294-7.767-0.908,1.2-2.114,4.522-3.9,2.807,0.268-1.462,1.148-3.367.424-4.418-0.759-1.125-2.922-1.325-4.331-2.157-0.832-.5-1.109-1.089-1.837-1.41-0.549.987,0.132,2.233-.218,3.347a3.159,3.159,0,0,1-.911,1.311,9.538,9.538,0,0,0,.721,1.423c-0.589,3.132,1.156,2.85,1.264,5.438-0.876.182-.969-0.341-1.769-0.228,1.491,2.689,3.932,4.84,2.776,9.52-1.361-.169-1.108,1.117-2.776.68a32.617,32.617,0,0,0-2.375,8.607c0.085,1.353.209,2.67,0.273,3.913a5.836,5.836,0,0,0,2.357,3.341c-0.538,1.689,1.127,1.4,1.259,2.492a15.357,15.357,0,0,0,2.276,6.8c-1.593,5.364,3.246,6.9,2.267,12.466,4.17,0.89,4.73,4.681,5.558,8.156-0.275.97-1.427,1.139-1.517,2.266,0.929,1.741,3.673,1.845,4.04,4.079,1.54,0.175,2.977,1.232,4.8.449a2.219,2.219,0,0,0,.248-1.582c2.3-1.458,6.784.17,9.6-.453,1.889-.418,4.106-2.425,5.8-3.173a15.216,15.216,0,0,0,3.537-2.035,5.527,5.527,0,0,1,.758-1.811c1.614,0.2,1.735-2.8,4.038-2.72,0.479-3.31,4.618-4.1,5.049-7.257,0.2-1.482-.647-2.779-0.253-4.986,1.632-1.479,3.96-1.032,5.3-2.491,2.054-2.238.255-5.627,0.757-9.516-0.359-.153-1.4-0.254-1.515-0.909,0.256-.96,2.051-0.838,3.284-1.587,0.334-.2.425-0.95,1.006-1.35,0.357-.256,1.513-0.333,2.023-0.689a34.142,34.142,0,0,0,4.288-4.073c0.971-.961,2.722-1.592,3.535-2.5a7.8,7.8,0,0,0,0-.905c0.84-1.366,2.451-1.783,2.524-2.72,0.138-1.724-1.313-1.846-2.018-2.943-0.385-.606-0.132-1.373-0.758-1.819,1.4-2.881-1.205-4.407-.5-7.249-0.213-.64-0.991-0.77-1.517-1.13-0.059-1.644-.052-2.959-0.248-4.536-0.25-1.946-1.812-3.134-1.516-4.531a2.763,2.763,0,0,1,2.775-2.046V116.04c2.31-.341,2.242-2.818,4.293-3.394v-1.818c1.958-.731,2.5-2.739,3.787-4.077,2.717-.432,4.045-2.106,7.067-2.264,0.94-2.685,4.412-4.707,4.546-8.84a4.448,4.448,0,0,1,1.764-1.355C548.185,89.214,552.685,85.126,552.128,78.654ZM450.157,53.422a6.881,6.881,0,0,0-.827.65,4.068,4.068,0,0,1-.916.629,4.142,4.142,0,0,1-1.136.387c-0.4.078-.79,0.166-1.156,0.273a8.011,8.011,0,0,1-2.178.5,1.879,1.879,0,0,1-.078.539,2.4,2.4,0,0,0-.1.537,1.346,1.346,0,0,0-.01.581,1.678,1.678,0,0,1,.01.581,5.284,5.284,0,0,1-.171.583,2.3,2.3,0,0,0-.127.627,2.522,2.522,0,0,0,.012.719,4.941,4.941,0,0,1,.057.74,3.627,3.627,0,0,1-.081.777,2.306,2.306,0,0,0-.034.753,3.514,3.514,0,0,0,.138.8,6.773,6.773,0,0,1,.183.8,5.137,5.137,0,0,1,.023.833,8.135,8.135,0,0,0,0,.855,5.767,5.767,0,0,0,.08.946,4.574,4.574,0,0,1,.058.972c-0.032.333-.051,0.771-0.058,1.31s0.012,1.154.058,1.837,0.118,1.41.217,2.182,0.194,1.538.287,2.313c0.077,0.776.133,1.527,0.171,2.248s0.1,1.395.172,2.018c0.078,0.608.164,1.137,0.264,1.587s0.165,0.778.2,0.993a3.161,3.161,0,0,1-.208,1.46,9.386,9.386,0,0,1-.8,1.619,3.108,3.108,0,0,1-.629.592q-0.356.252-.676,0.5a3.236,3.236,0,0,0-.631.489,0.826,0.826,0,0,1-1.134.114,1.016,1.016,0,0,0-.39-0.216,0.73,0.73,0,0,0-.389-0.034,0.3,0.3,0,0,1-.276-0.057,0.649,0.649,0,0,1-.161-0.3,1.467,1.467,0,0,0-.114-0.32,0.732,0.732,0,0,0-.252-0.262,1.161,1.161,0,0,1-.3-0.286A0.95,0.95,0,0,1,439.1,84.8a2.751,2.751,0,0,0-.058-0.488,7.59,7.59,0,0,1-.161-0.89,3.361,3.361,0,0,1,.07-0.707v-0.3a2.5,2.5,0,0,0,.229-0.572,2.667,2.667,0,0,0,.068-0.638,2.881,2.881,0,0,1,.115-0.776,4.722,4.722,0,0,1,.229-0.843,4.628,4.628,0,0,0,.228-0.844,3.936,3.936,0,0,0,.059-0.777c-0.008-.242-0.011-0.455-0.011-0.638a2.394,2.394,0,0,1,.078-0.639,11.293,11.293,0,0,0,.174-1.257q0.068-.75.091-1.7t0.138-2.063c0.076-.732.174-1.5,0.3-2.316s0.23-1.644.322-2.5q0.138-1.232.218-2.5c0.051-.844.125-1.667,0.217-2.476a16.92,16.92,0,0,0,.091-2.008,4.922,4.922,0,0,0-.125-0.912,4.64,4.64,0,0,1-.126-0.867,2.651,2.651,0,0,1-.012-0.819,3.659,3.659,0,0,0,.034-0.754,1.507,1.507,0,0,0-.171-0.56,0.573,0.573,0,0,1-.081-0.421,1.326,1.326,0,0,1-.516-0.265,2.041,2.041,0,0,0-.537-0.306c-0.216-.061-0.433-0.114-0.655-0.16a3.311,3.311,0,0,1-.654-0.2c-0.288-.122-0.725-0.32-1.305-0.594-0.23-.09-0.457-0.173-0.687-0.248a4.362,4.362,0,0,1-.642-0.276,3.067,3.067,0,0,1-.664-0.444,4.393,4.393,0,0,0-1.3-.812,2.7,2.7,0,0,1-.608-0.341,7.393,7.393,0,0,1-.872-0.864,4.452,4.452,0,0,1-.663-0.711,7.233,7.233,0,0,0-.963-1.549,3.723,3.723,0,0,0-.664-0.536,4.369,4.369,0,0,1-.619-0.47,3.354,3.354,0,0,1-.448-0.49c-0.128-.175-0.255-0.331-0.376-0.469a2.651,2.651,0,0,1-.436-0.591,1.638,1.638,0,0,1,.206-0.307,0.723,0.723,0,0,0,.16-0.382,0.4,0.4,0,0,0,0-.328,0.644,0.644,0,0,1-.045-0.332,0.69,0.69,0,0,1,.183-0.294,0.385,0.385,0,0,0,.137-0.231A0.219,0.219,0,0,0,429,44.114,0.54,0.54,0,0,0,429.186,44l0.458-.227c0.03,0,.267-0.048.712-0.138,0.5-.136.77-0.206,0.8-0.206a2.318,2.318,0,0,1,.709.227c0.366,0.248.566,0.375,0.6,0.39a0.731,0.731,0,0,1,.112.329,0.712,0.712,0,0,0,.117.331,0.821,0.821,0,0,0,.286.284,0.993,0.993,0,0,1,.285.264,4.047,4.047,0,0,1,.173.592,3.708,3.708,0,0,0,.422.981,8.247,8.247,0,0,0,.781,1.153q0.482,0.6,1.009,1.245a10.687,10.687,0,0,0,2.428,2.325,5.685,5.685,0,0,0,3.186.981c0.6,0,1.146.015,1.65,0.046a8.429,8.429,0,0,0,1.4-.023,6.6,6.6,0,0,0,1.123-.172c0.337-.084.644-0.149,0.918-0.195a7.4,7.4,0,0,0,1.239-.318,1.574,1.574,0,0,0,.48-0.41,0.323,0.323,0,0,1,.183-0.093,1.038,1.038,0,0,0,.343-0.182,1.568,1.568,0,0,0,.311-0.388,2.271,2.271,0,0,1,.423-0.5,5.382,5.382,0,0,1,.607-0.419,3.492,3.492,0,0,0,.653-0.516,3.008,3.008,0,0,0,.528-0.65,6.376,6.376,0,0,1,.528-0.74q0.205-.274.446-0.537a2.556,2.556,0,0,0,.4-0.581,2.871,2.871,0,0,0,.208-0.615,4.237,4.237,0,0,1,.182-0.617,1.681,1.681,0,0,1,.252-0.538,1.658,1.658,0,0,0,.253-0.51,1.589,1.589,0,0,0,.068-0.446,0.54,0.54,0,0,1,.114-0.353,3.128,3.128,0,0,1,.518-0.594c0.174-.154.331-0.289,0.468-0.41a2.192,2.192,0,0,1,.551-0.5c0.014,0,.19.045,0.526,0.136a0.854,0.854,0,0,0,.287.048,1.918,1.918,0,0,1,.286.021,3.157,3.157,0,0,1,.3.125,0.891,0.891,0,0,0,.32.1l0.62,0.206a1.387,1.387,0,0,1,.3.638,3.042,3.042,0,0,1,.16,1.142,8.263,8.263,0,0,1-1.122,1.939q-0.988,1.344-2.017,2.555c-0.366.426-.738,0.832-1.111,1.223s-0.716.74-1.02,1.059c-0.322.318-.588,0.606-0.8,0.864a3.222,3.222,0,0,1-.483.505,2.243,2.243,0,0,1-.492.238A4.125,4.125,0,0,0,450.157,53.422Zm27.11,21.742a2.909,2.909,0,0,1-.481.2,4.176,4.176,0,0,0-.549.23c-0.216.09-.426,0.19-0.632,0.3a3.485,3.485,0,0,1-.608.252,4.817,4.817,0,0,1-1.191.114,1.861,1.861,0,0,1-.941-0.184,1.233,1.233,0,0,1-.366-0.308c-0.106-.128-0.206-0.247-0.3-0.351a2.516,2.516,0,0,0-.286-0.287,0.8,0.8,0,0,1-.218-0.262,0.381,0.381,0,0,1-.071-0.3c0-.2-0.006-0.4-0.021-0.615s-0.024-.435-0.024-0.662a3.712,3.712,0,0,1,.057-0.616,3.567,3.567,0,0,0,.059-0.639,2.433,2.433,0,0,0-.08-0.626,2.537,2.537,0,0,1-.081-0.65,2.941,2.941,0,0,1,.069-0.615,3.127,3.127,0,0,0,.069-0.639q-0.159-.548-0.357-1.062a10.091,10.091,0,0,1-.331-1.059,8.736,8.736,0,0,1-.242-1.1,11.066,11.066,0,0,0-.215-1.1,5.912,5.912,0,0,0-.38-1.035,6.179,6.179,0,0,1-.377-1.06c-0.092-.353-0.172-0.708-0.241-1.073s-0.149-.733-0.241-1.1c-0.076-.228-0.163-0.458-0.264-0.695a5.661,5.661,0,0,1-.24-0.7,5.516,5.516,0,0,1-.184-0.72c-0.045-.251-0.1-0.5-0.16-0.74a4.211,4.211,0,0,0-.251-0.686,3.861,3.861,0,0,1-.253-0.708,2.813,2.813,0,0,1-.138-0.731,3.849,3.849,0,0,0-.114-0.749,2.014,2.014,0,0,0-.217-0.527,1.908,1.908,0,0,1-.219-0.526,2.818,2.818,0,0,1-.091-0.546,3.306,3.306,0,0,0-.091-0.572,1.758,1.758,0,0,0-.219-0.511,1.847,1.847,0,0,1-.217-0.514,2.856,2.856,0,0,1-.081-0.57,2.875,2.875,0,0,0-.08-0.571,1.444,1.444,0,0,0-.3.388c-0.077.137-.176,0.3-0.3,0.5s-0.244.416-.366,0.661c-0.213.456-.481,1.035-0.8,1.734q-0.663,1.323-.984,2.028c-0.108.217-.2,0.429-0.287,0.64s-0.172.421-.264,0.616c-0.107.214-.214,0.422-0.321,0.618s-0.207.388-.3,0.571a4.687,4.687,0,0,0-.229.582,5.614,5.614,0,0,1-.206.535c-0.092.183-.18,0.342-0.264,0.479a2.084,2.084,0,0,0-.2.411,3.262,3.262,0,0,0-.193.492,3.694,3.694,0,0,1-.218.534c-0.092.183-.195,0.369-0.309,0.561a6.267,6.267,0,0,0-.311.58,4.249,4.249,0,0,0-.263.661,5.838,5.838,0,0,1-.24.662,5.776,5.776,0,0,1-.356.653,4.562,4.562,0,0,0-.332.626,7.3,7.3,0,0,0-.425.97,9.122,9.122,0,0,1-.378.924c-0.151.289-.309,0.559-0.469,0.81a11.877,11.877,0,0,0-.665,1.359c-0.068.2-.134,0.36-0.194,0.5a1.548,1.548,0,0,1-.253.386,1.838,1.838,0,0,0-.045.391V71.1c-0.031.137-.066,0.265-0.1,0.388a2.159,2.159,0,0,0-.08.341,1.2,1.2,0,0,0-.023.4,1.722,1.722,0,0,1,0,.38,1.912,1.912,0,0,1-.126.378,1.107,1.107,0,0,0-.1.349,3.434,3.434,0,0,0-.252.332,2.235,2.235,0,0,1-.253.31c-0.092.1-.187,0.207-0.287,0.306s-0.194.2-.286,0.287a1.511,1.511,0,0,0-.228.354,2.35,2.35,0,0,1-.208.353,3.948,3.948,0,0,1-.285.3,3.248,3.248,0,0,0-.287.294,0.671,0.671,0,0,0-.252.046,0.67,0.67,0,0,1-.253.045,0.531,0.531,0,0,1-.263-0.068,0.558,0.558,0,0,0-.264-0.067,0.659,0.659,0,0,0-.264.058,0.6,0.6,0,0,1-.24.055,0.932,0.932,0,0,1-.264-0.036,0.458,0.458,0,0,1-.481-0.238,0.857,0.857,0,0,1-.217-0.229,1.3,1.3,0,0,1-.16-0.249c-0.046-.09-0.092-0.183-0.139-0.274a1.1,1.1,0,0,0-.217-0.2,0.631,0.631,0,0,1-.195-0.228,0.833,0.833,0,0,1-.137-0.253,2.091,2.091,0,0,0-.115-0.272,0.93,0.93,0,0,0,.046-0.287,0.962,0.962,0,0,1,.228-0.57,1.07,1.07,0,0,0,.185-0.261,0.493,0.493,0,0,0,.035-0.32,0.5,0.5,0,0,1,.034-0.319,1.367,1.367,0,0,1,.172-0.263,1.514,1.514,0,0,0,.172-0.262,1.383,1.383,0,0,0,.32-0.342,2.131,2.131,0,0,1,.343-0.389,1.667,1.667,0,0,1,.4-0.24,1.516,1.516,0,0,0,.423-0.26,1.588,1.588,0,0,0,.332-0.342,2.225,2.225,0,0,1,.332-0.365,3,3,0,0,1,.39-0.285,2.985,2.985,0,0,0,.413-0.307c0.137-.277.27-0.562,0.4-0.87s0.273-.6.424-0.886,0.287-.579.448-0.868,0.309-.579.448-0.867c0.137-.272.275-0.564,0.411-0.867s0.285-.6.436-0.89q0.205-.41.458-0.846c0.169-.287.321-0.575,0.459-0.867,0.228-.438.556-1.1,0.985-1.981,0.169-.322.336-0.643,0.5-0.971s0.344-.657.527-0.992c0.153-.319.3-0.649,0.446-0.992s0.3-.68.471-1.017c0.169-.318.352-0.635,0.551-0.947s0.388-.633.572-0.969a5.421,5.421,0,0,0,.355-0.821,7.17,7.17,0,0,1,.355-0.844,7.838,7.838,0,0,1,.469-0.764,6.269,6.269,0,0,0,.471-0.788,6.753,6.753,0,0,0,.366-0.81c0.108-.282.231-0.555,0.368-0.832s0.278-.539.423-0.8,0.285-.523.424-0.8a1.582,1.582,0,0,0,.115-0.332,1.348,1.348,0,0,1,.137-0.353,0.9,0.9,0,0,1,.217-0.3,1,1,0,0,0,.242-0.32,1.47,1.47,0,0,0,.114-0.329,1.7,1.7,0,0,1,.139-0.377,3.449,3.449,0,0,1,.343-0.592q0.159,0.275.332,0.535c0.114,0.177.233,0.354,0.356,0.538,0.092,0.181.179,0.376,0.262,0.58a4.881,4.881,0,0,0,.286.581,2.912,2.912,0,0,0,.391.516,2.592,2.592,0,0,1,.389.512,3.586,3.586,0,0,1,.263.6,2.515,2.515,0,0,0,.287.582,1.406,1.406,0,0,0,.173.467,2.231,2.231,0,0,1,.195.445c0.028,0.167.052,0.335,0.068,0.5a2.291,2.291,0,0,0,.091.48c0.047,0.167.092,0.329,0.14,0.48s0.089,0.3.137,0.456a4.332,4.332,0,0,1,.057.5,1.873,1.873,0,0,0,.08.48,2.586,2.586,0,0,1,.274.525c0.061,0.184.135,0.4,0.218,0.65s0.187,0.531.31,0.833a9.445,9.445,0,0,0,.4.991c0.161,0.345.318,0.712,0.472,1.11,0.137,0.409.265,0.837,0.388,1.278s0.269,0.879.437,1.321a5.73,5.73,0,0,0,.252.571c0.092,0.182.183,0.365,0.274,0.545,0.061,0.2.115,0.4,0.16,0.605a2.587,2.587,0,0,0,.206.584,2.9,2.9,0,0,0,.254.57,4.713,4.713,0,0,1,.275.547,4.777,4.777,0,0,1,.148.569,2.855,2.855,0,0,0,.172.57c0.138,0.38.282,0.746,0.436,1.094l0.436,1.006c0.12,0.318.229,0.632,0.319,0.943a8.193,8.193,0,0,0,.3.856,5.292,5.292,0,0,0,.3.7q0.161,0.309.252,0.537a2.5,2.5,0,0,1,.115.433,1.411,1.411,0,0,0,.046.231,7.876,7.876,0,0,1,.275,1.072,5.03,5.03,0,0,1,.091.73,5.562,5.562,0,0,0,.093.731,3.869,3.869,0,0,0,.149.716c0.068,0.221.117,0.409,0.148,0.559,0.014,0.183.032,0.375,0.046,0.57A2.446,2.446,0,0,1,477.267,75.164Zm18.08-34.814a5.425,5.425,0,0,1-.456.32,1.988,1.988,0,0,0-.276.283,1.256,1.256,0,0,1-.32.286,1.483,1.483,0,0,1-.472.16c-0.173.029-.346,0.067-0.515,0.112a1.08,1.08,0,0,0-.251.173,1.2,1.2,0,0,1-.252.17,1.259,1.259,0,0,1-.322.149,1.825,1.825,0,0,0-.343.148,3.667,3.667,0,0,0-.355.249c-0.115.094-.233,0.184-0.354,0.276a2.765,2.765,0,0,1-.415.227,2.013,2.013,0,0,0-.388.229,10.465,10.465,0,0,1-.917.685c-0.351.26-.663,0.471-0.941,0.639-0.168.1-.323,0.212-0.469,0.318s-0.294.206-.446,0.3a1.99,1.99,0,0,1-.459.237,4.53,4.53,0,0,0-.435.173,2.385,2.385,0,0,0-.745.581c-0.222.25-.448,0.488-0.676,0.718-0.23.259-.471,0.505-0.721,0.743a3.614,3.614,0,0,0-.63.764,4.4,4.4,0,0,0-.437.877c-0.107.3-.207,0.576-0.3,0.833a4.345,4.345,0,0,0-.343,1.233q0,0.023.87,1.436c0.229,0.38.485,0.826,0.768,1.333a17.6,17.6,0,0,0,1,1.586Q486.3,56.433,487,57.324t1.363,1.849c0.428,0.637.846,1.291,1.26,1.962s0.824,1.32,1.238,1.962c0.213,0.362.44,0.712,0.677,1.036a11.278,11.278,0,0,1,.629.97,9.542,9.542,0,0,1,.469.983,6.614,6.614,0,0,0,.425.866,6.741,6.741,0,0,0,.412.72c0.137,0.2.253,0.39,0.344,0.558a2.383,2.383,0,0,1,.149.446,0.689,0.689,0,0,0,.081.237,4.427,4.427,0,0,1,.252,2.029,3.087,3.087,0,0,1-.378.9c-0.177.282-.333,0.55-0.47,0.81-0.155.273-.29,0.539-0.412,0.8a3.877,3.877,0,0,1-.391.662,2.419,2.419,0,0,1-.446.457,1.135,1.135,0,0,0-.288.273c-0.059.092-.171,0.285-0.333,0.581a6.957,6.957,0,0,1-.674.994,14.091,14.091,0,0,1-1.031,1.186c-0.4.41-.788,0.852-1.169,1.322s-0.748.922-1.1,1.395-0.688.888-1.008,1.252a4.7,4.7,0,0,1-1.467,1.143,3.929,3.929,0,0,1-.826.157,5.248,5.248,0,0,1-.892-0.181,8.871,8.871,0,0,1-.871-0.23,1.341,1.341,0,0,1-.528-0.57,1.431,1.431,0,0,0-.217-0.248,1.675,1.675,0,0,1-.195-0.209,1.419,1.419,0,0,1-.091-0.5,2.908,2.908,0,0,1,.023-0.568,0.929,0.929,0,0,1,.333-0.311,5.193,5.193,0,0,0,.492-0.353,1.756,1.756,0,0,0,.286-0.425,2.716,2.716,0,0,1,.424-0.58,7.7,7.7,0,0,1,.607-0.626,8.562,8.562,0,0,0,.7-0.741,8.915,8.915,0,0,0,.583-0.868q0.289-.479.631-0.958c0.23-.319.466-0.631,0.711-0.936s0.472-.615.688-0.937a5.676,5.676,0,0,0,.366-0.657,4.212,4.212,0,0,1,.389-0.665c0.139-.183.286-0.361,0.447-0.536a6.864,6.864,0,0,0,.448-0.535,2.507,2.507,0,0,0,.24-0.539,2.442,2.442,0,0,1,.195-0.465c0.275-.549.413-0.753,0.413-0.615a1.44,1.44,0,0,0-.058-0.538,4.213,4.213,0,0,1-.125-0.538,5.743,5.743,0,0,0-.322-0.91c-0.047-.091-0.175-0.287-0.387-0.593-0.049-.061-0.1-0.137-0.162-0.23a5.749,5.749,0,0,1-.917-1.047,10.428,10.428,0,0,1-.837-1.348,16.474,16.474,0,0,0-1.043-1.688c-0.412-.578-0.855-1.181-1.33-1.814s-0.923-1.3-1.352-2q-1.284-1.917-2.474-4.083c-0.168-.273-0.329-0.549-0.482-0.823s-0.3-.545-0.435-0.82c-0.152-.3-0.365-0.8-0.641-1.506a10.824,10.824,0,0,1-.482-1.255,2.022,2.022,0,0,1,0-.958c0-.136,0-0.285-0.011-0.445a1.194,1.194,0,0,1,.057-0.444,1.955,1.955,0,0,1,.195-0.41c0.083-.138.162-0.275,0.241-0.413a2.622,2.622,0,0,0,.148-0.431,1.429,1.429,0,0,1,.195-0.435,1.168,1.168,0,0,1,.333-0.33,1.342,1.342,0,0,0,.355-0.353c0.184-.228.361-0.467,0.538-0.72a4.432,4.432,0,0,1,.607-0.7,5.165,5.165,0,0,1,.7-0.536,7.674,7.674,0,0,0,.722-0.511c0.2-.172.385-0.345,0.561-0.527a4.229,4.229,0,0,1,.539-0.48,3.958,3.958,0,0,1,.493-0.343,2.514,2.514,0,0,0,.4-0.272c0.153-.122.343-0.289,0.572-0.5a8.076,8.076,0,0,1,.826-0.662,8.467,8.467,0,0,1,1.089-.6c0.4-.191.805-0.4,1.2-0.627s0.765-.461,1.147-0.7a6.856,6.856,0,0,1,1.193-.581,5.54,5.54,0,0,1,2.153-.411,10.233,10.233,0,0,1,1.444.045,1.953,1.953,0,0,1,.665.661,3.63,3.63,0,0,1,.435.685,2.8,2.8,0,0,1,.1.4,1.377,1.377,0,0,0,.126.377A0.908,0.908,0,0,1,495.347,40.35Z" transform="translate(-389.969 -18)"/>
</svg>
